<svg width="64" height="64" viewBox="0 0 64 64" xmlns="http://www.w3.org/2000/svg" role="img" aria-label="DCC electric logo">
  <defs>
    <linearGradient id="ring" x1="8" y1="8" x2="56" y2="56" gradientUnits="userSpaceOnUse">
      <stop offset="0" stop-color="#00E5CF"/>
      <stop offset="1" stop-color="#4FD9FF"/>
    </linearGradient>
    <linearGradient id="bolt" x1="30" y1="16" x2="36" y2="49" gradientUnits="userSpaceOnUse">
      <stop offset="0" stop-color="#FFE28A"/>
      <stop offset="1" stop-color="#FF9A3C"/>
    </linearGradient>
  </defs>
  <rect x="2" y="2" width="60" height="60" rx="14" fill="#03131A" stroke="url(#ring)" stroke-width="2"/>
  <path d="M17 39V25H22.8C25.8 25 27.8 27 27.8 32C27.8 37 25.8 39 22.8 39H17ZM20.4 36H22.1C23.7 36 24.5 35 24.5 32C24.5 29 23.7 28 22.1 28H20.4V36Z" fill="#DDFBF8"/>
  <path d="M33.2 24.5H39.3C42.4 24.5 44.2 26 44.2 29C44.2 31 43.3 32.3 41.5 33C43.7 33.6 44.8 35 44.8 37.2C44.8 40.4 42.8 42 39.4 42H33.2V24.5ZM36.5 31.5H38.9C40.1 31.5 40.8 30.9 40.8 29.8C40.8 28.7 40.1 28.1 38.9 28.1H36.5V31.5ZM36.5 38.4H39.1C40.5 38.4 41.3 37.8 41.3 36.6C41.3 35.3 40.5 34.7 39.1 34.7H36.5V38.4Z" fill="#DDFBF8"/>
  <path d="M53 28.4C52 27.3 50.9 26.9 49.6 26.9C47.2 26.9 45.7 28.7 45.7 33.2C45.7 37.7 47.2 39.5 49.6 39.5C51 39.5 52 39 53 38.1V41.8C52 42.6 50.8 43 49.3 43C44.9 43 42.3 39.9 42.3 33.2C42.3 26.5 44.9 23.4 49.3 23.4C50.8 23.4 52.1 23.8 53 24.7V28.4Z" fill="#8FF7EC"/>
  <path d="M35.2 14.8L28.3 31.7H33.6L29.8 49.2L40.2 28.8H34.4L35.2 14.8Z" fill="url(#bolt)"/>
</svg>
