<svg width="64" height="64" viewBox="0 0 64 64" fill="none" xmlns="http://www.w3.org/2000/svg">
  <rect x="2" y="2" width="60" height="60" rx="14" fill="#05151C" stroke="#00E6CF" stroke-width="2"/>
  <path d="M15 20.5H24.5C29.7 20.5 33 23.8 33 32C33 40.2 29.7 43.5 24.5 43.5H15V20.5ZM20.3 39H23.6C26.4 39 27.7 37.3 27.7 32C27.7 26.7 26.4 25 23.6 25H20.3V39Z" fill="#D7F5F1"/>
  <path d="M39.7 24.7C37.1 24.7 35.6 26.4 35.6 32C35.6 37.6 37.1 39.3 39.7 39.3C41.9 39.3 43.4 38.2 44.2 35.8L48.9 37.6C47.6 41.9 44.6 44.2 39.5 44.2C33.2 44.2 30.3 39.8 30.3 32C30.3 24.2 33.2 19.8 39.5 19.8C44.6 19.8 47.6 22.1 48.9 26.4L44.2 28.2C43.4 25.8 41.9 24.7 39.7 24.7Z" fill="#FF7F3F"/>
  <path d="M41.5 32C41.5 29.4 43.6 27.3 46.2 27.3H51.6V31.6H46.8C46.2 31.6 45.8 32 45.8 32.6C45.8 33.2 46.2 33.6 46.8 33.6H51.6V37.9H46.2C43.6 37.9 41.5 35.8 41.5 33.2V32Z" fill="#D7F5F1"/>
</svg>
